<svg width="108" height="108" viewBox="0 0 108 108" fill="none" xmlns="http://www.w3.org/2000/svg">
<rect width="108" height="108" rx="5" fill="#21242D"/>
<path d="M67.3998 36H40.6002C38.0636 36 36 38.0637 36 40.6003V67.3998C36 69.9363 38.0636 72 40.6002 72H67.3998C69.9364 72 72 69.9363 72 67.3997V40.6003C72 38.0637 69.9364 36 67.3998 36ZM69.8795 67.3998C69.8795 68.7672 68.7671 69.8795 67.3998 69.8795H40.6002C39.2328 69.8795 38.1204 68.7671 38.1204 67.3998V63.5321L45.0993 57.5942C45.354 57.3775 45.7255 57.3754 45.9825 57.5889L50.3542 61.219C50.7757 61.5689 51.3944 61.5402 51.7818 61.1525L62.169 50.7495C62.3567 50.5614 62.5756 50.5431 62.6898 50.5489C62.8038 50.5548 63.02 50.5954 63.1875 50.8018L69.8796 59.0417V67.3998H69.8795ZM69.8795 55.678L64.8335 49.4648C64.3331 48.8486 63.5913 48.4718 62.7985 48.4311C62.0062 48.391 61.2293 48.6893 60.6684 49.2511L50.9648 58.9698L47.3373 55.9576C46.2855 55.0842 44.7665 55.0933 43.7252 55.9793L38.1204 60.748V40.6003C38.1204 39.2329 39.2328 38.1205 40.6002 38.1205H67.3998C68.7672 38.1205 69.8795 39.2329 69.8795 40.6003V55.678Z" fill="#9B9B9B"/>
<path d="M47.3324 40.4294C44.5132 40.4294 42.2197 42.723 42.2197 45.5421C42.2197 48.3612 44.5132 50.6547 47.3324 50.6547C50.1515 50.6547 52.445 48.3612 52.445 45.5421C52.445 42.723 50.1515 40.4294 47.3324 40.4294ZM47.3324 48.5343C45.6824 48.5343 44.3401 47.192 44.3401 45.5421C44.3401 43.8921 45.6824 42.5499 47.3324 42.5499C48.9823 42.5499 50.3246 43.8922 50.3246 45.5421C50.3246 47.192 48.9823 48.5343 47.3324 48.5343Z" fill="#9B9B9B"/>
</svg>
